<?xml version="1.0" standalone="no"?>
<!DOCTYPE svg PUBLIC "-//W3C//DTD SVG 20010904//EN"
 "http://www.w3.org/TR/2001/REC-SVG-20010904/DTD/svg10.dtd">
<svg version="1.0" xmlns="http://www.w3.org/2000/svg"
 width="578.000000pt" height="578.000000pt" viewBox="0 0 578.000000 578.000000"
 preserveAspectRatio="xMidYMid meet">
<metadata>
Created by potrace 1.14, written by Peter Selinger 2001-2017
</metadata>
<g transform="translate(0.000000,578.000000) scale(0.100000,-0.100000)"
fill="#000000" stroke="none">
<path d="M3227 5056 c-53 -19 -100 -53 -126 -92 -49 -71 -51 -93 -51 -614 l0
-486 -300 0 c-200 0 -301 3 -303 10 -2 6 -4 160 -4 341 0 226 -4 342 -12 366
-15 45 -56 85 -101 96 -19 5 -258 9 -530 8 -480 0 -496 -1 -530 -21 -19 -11
-45 -35 -57 -53 l-23 -34 3 -523 c2 -514 2 -523 23 -551 12 -15 36 -37 55 -48
31 -18 54 -20 274 -22 132 0 245 -2 251 -2 14 -1 14 -411 -1 -412 -5 0 -311
-1 -680 -1 -381 0 -689 -4 -715 -9 -98 -21 -183 -112 -196 -211 -9 -67 -10
-1978 -1 -1978 5 0 5 -4 2 -10 -10 -17 14 -85 45 -128 34 -47 89 -85 140 -98
19 -4 485 -8 1034 -9 933 -1 1003 1 1050 17 86 31 150 108 164 198 3 19 6 250
6 513 0 323 4 477 11 478 53 3 585 0 592 -4 4 -3 7 -155 6 -339 -1 -346 2
-384 41 -427 45 -51 49 -51 585 -51 329 0 509 4 528 11 36 13 83 58 83 79 0 9
3 20 7 24 5 4 8 231 9 504 1 521 -1 537 -44 585 -41 45 -60 48 -323 48 l-249
-1 2 208 3 207 695 1 695 1 53 23 c63 27 127 95 144 154 9 30 12 303 13 1041
1 1104 4 1058 -62 1135 -18 21 -56 50 -85 64 l-51 26 -1016 -1 c-829 0 -1023
-2 -1054 -13z m2084 -108 c20 -11 47 -38 59 -60 l22 -39 0 -998 c0 -976 -1
-999 -20 -1037 -12 -24 -36 -48 -59 -61 l-40 -22 -691 -1 -692 0 0 453 c0 491
-2 513 -54 582 -29 38 -99 83 -143 92 -15 3 -143 6 -283 7 l-255 1 -1 485 c0
517 1 532 49 571 12 10 27 23 33 28 6 5 20 11 30 13 10 3 467 5 1014 5 975 0
996 0 1031 -19z m-3017 -370 c18 -2 31 -10 36 -23 4 -11 7 -171 6 -355 l-1
-335 -145 -1 c-151 -1 -203 -6 -243 -27 -83 -43 -137 -130 -139 -226 -1 -46
-6 -64 -17 -70 -21 -9 -439 -7 -468 3 -13 4 -24 13 -24 19 -1 7 -3 229 -4 495
-1 385 2 487 12 502 8 11 28 20 51 22 44 4 894 0 936 -4z m44 -906 c-1 -54 -3
-102 -5 -109 -9 -22 -59 -28 -223 -27 -91 1 -175 2 -188 3 -22 1 -23 5 -21 54
2 55 25 112 55 138 35 31 79 38 231 38 l151 -1 0 -96z m712 -353 c0 -305 4
-465 11 -497 23 -93 110 -175 199 -188 25 -4 154 -7 288 -7 239 0 242 0 243
-21 3 -62 4 -364 1 -378 -4 -16 -22 -18 -208 -17 -187 0 -208 -1 -247 -20 -67
-32 -80 -65 -81 -195 -1 -61 -4 -113 -8 -116 -3 -3 -141 -5 -305 -5 l-298 0
-2 465 c0 256 -3 474 -6 485 -15 60 -72 129 -137 165 -44 25 -48 25 -300 27
-140 1 -265 2 -277 2 -21 1 -21 3 -21 206 0 113 3 205 7 206 3 0 101 1 218 2
l211 2 39 31 c56 46 66 72 65 188 0 56 2 104 5 108 2 4 139 8 304 8 l299 0 0
-451z m655 431 c28 -13 49 -34 65 -62 l24 -43 1 -445 c0 -245 -1 -451 -3 -457
-6 -20 -497 -18 -544 1 -34 15 -79 63 -86 94 -5 21 -10 914 -5 924 2 4 117 7
255 8 232 0 254 -1 293 -20z m-1905 -839 c3 0 6 -210 6 -464 l0 -464 28 -56
c15 -31 44 -70 64 -87 64 -52 93 -57 367 -58 138 0 256 -1 263 -1 10 -1 12
-100 10 -503 l-3 -503 -24 -32 c-52 -70 15 -66 -1092 -65 l-997 0 -39 22 c-22
12 -48 36 -59 53 -18 31 -19 66 -20 1032 -1 762 2 1007 11 1030 15 39 55 77
94 90 20 6 263 10 708 9 373 -1 680 -2 683 -3z m655 -14 c35 -18 62 -48 76
-83 5 -15 9 -219 9 -482 l0 -457 -242 1 c-134 0 -259 4 -278 7 -19 4 -47 18
-63 32 -58 55 -57 44 -56 537 0 249 5 455 9 458 5 3 123 5 262 4 211 0 258 -3
283 -17z m1338 -850 c-3 -69 -28 -116 -80 -148 -33 -20 -49 -22 -194 -24 -124
-1 -159 2 -160 12 -1 7 -1 49 -1 93 0 112 0 110 25 119 12 5 110 8 217 7 l195
-1 -2 -58z m593 42 c15 -17 17 -60 16 -466 0 -247 -1 -469 -1 -494 -1 -38 -5
-48 -23 -56 -18 -7 -903 -12 -990 -4 -9 0 -20 11 -24 24 -9 26 -12 665 -3 678
3 5 82 11 175 12 152 3 173 5 211 25 88 46 134 120 141 229 l5 72 238 -1 c219
0 239 -2 255 -19z"/>
<path d="M4710 4603 c-81 -13 -165 -60 -224 -125 l-52 -57 1 80 c1 78 1 79
-25 80 -63 2 -153 -1 -157 -5 -3 -3 -6 -1347 -3 -1519 l0 -28 92 3 93 3 0 282
c0 155 3 284 7 288 3 4 12 -4 18 -17 24 -45 122 -121 175 -135 80 -20 113 -24
188 -20 72 4 98 10 151 36 220 108 328 410 262 731 -40 191 -185 366 -330 396
-31 7 -167 11 -196 7z m170 -180 c47 -22 96 -76 131 -145 16 -32 27 -58 24
-58 -3 0 -1 -8 4 -18 18 -33 29 -214 17 -278 -2 -10 -7 -39 -11 -64 -10 -65
-51 -144 -98 -195 -51 -53 -131 -83 -209 -79 -29 1 -53 3 -53 4 0 1 -11 4 -25
6 -30 5 -85 41 -122 78 -58 59 -99 190 -101 325 -2 145 16 228 68 317 74 126
234 171 375 107z"/>
<path d="M1110 2409 c-91 -17 -171 -65 -221 -133 l-29 -40 3 67 c2 36 1 70 -2
76 -7 11 -29 14 -107 12 l-61 -1 0 -708 0 -709 86 1 85 1 0 267 -1 266 21 -26
c60 -77 134 -122 231 -138 247 -41 446 126 490 411 7 46 7 209 1 243 -30 147
-68 225 -151 308 -43 44 -76 67 -117 82 -65 24 -161 33 -228 21z m104 -143
c89 -17 168 -102 202 -221 18 -61 23 -220 10 -298 -20 -120 -93 -220 -185
-252 -132 -45 -270 13 -330 139 -43 93 -58 246 -36 376 23 139 125 250 240
263 34 3 44 3 99 -7z"/>
</g>
</svg>
